<?xml version="1.0" standalone="yes"?>
<svg width="32" height="32">
<path style="fill:#000000; stroke:none;" d="M0 0L0 7L13 1L0 0z"/>
<path style="fill:#fffbf0; stroke:none;" d="M23 28L20 29L18 27L18 23L23 23L23 18L27 18L27 23L30 23L30 8L31 8L31 23C38.8115 4.38422 11.3969 -8.86462 1.02778 7.39043C-7.54423 20.8283 14.1356 41.3627 23 28z"/>
<path style="fill:#000000; stroke:none;" d="M19 0L19 1L32 7L32 0L19 0M20 30L20 29C1.34533 31.4955 -5.6111 7.9599 14 3.07099C19.3215 1.74438 25.0044 6.56086 30 8C27.0961 5.59388 23.5338 3.72777 20 2.35571C-2.15266 -6.24552 -7.08723 35.8121 20 30M30 8L30 23L27 23L27 18L23 18L23 23L18 23L20 29L23 28L19 31L19 32L32 32L30 8z"/>
<path style="fill:#fffbf0; stroke:none;" d="M24 19L24 24L19 24L19 26L24 26L24 31L26 31L26 26L31 26L31 24L26 24L26 19L24 19z"/>
<path style="fill:#000000; stroke:none;" d="M0 25L0 32L13 32L13 31L0 25z"/>
<path style="fill:#fffbf0; stroke:none;" d="M27 27L27 29L29 27L27 27z"/>
</svg>
